# xmcd
#
# Track frame offsets:
# 150
# 7996
# 26114
# 54919
# 68930
# 81755
# 105310
# 120438
# 144738
# 160531
# 172350
# 188239
# 211644
# 242924
# 258828
#
# Disc length: 3564 seconds
#
#
# Revision: 0
# Processed by: cddbd v1.5.2PL0 Copyright (c) Steve Scherf et al.
# Submitted via: FreeRIP 2.951 
#
DISCID=c10dea0f
DTITLE=Fort Hays Wranglers - Fort Hays Wranglers Live!
DYEAR=1900
DGENRE=Country
TTITLE0=Howdy Friends and Neighbors
TTITLE1=Mountain Music
TTITLE2=Western Medley
TTITLE3=Old Country Medley
TTITLE4=Get Rhythm
TTITLE5=Devil Went Down To Georgia
TTITLE6=Steel Guitar Medley
TTITLE7=Low Down The Chariot
TTITLE8=In The Mood
TTITLE9=Blue Grass Medley
TTITLE10=Forever and Ever
TTITLE11=Orange Blossom Special
TTITLE12=Rock and Roll Medley
TTITLE13=God Bless The USA
TTITLE14=Thank You Friends and Neibors
EXTD=
EXTT0=
EXTT1=
EXTT2=
EXTT3=
EXTT4=
EXTT5=
EXTT6=
EXTT7=
EXTT8=
EXTT9=
EXTT10=
EXTT11=
EXTT12=
EXTT13=
EXTT14=
PLAYORDER=
